<svg width="29" height="28" viewBox="0 0 29 28" fill="none" xmlns="http://www.w3.org/2000/svg">
<path d="M26.4679 14C26.4679 7.19539 20.9511 1.6786 14.1465 1.6786C7.34182 1.6786 1.82504 7.19539 1.82504 14C1.82504 20.8047 7.34182 26.3215 14.1465 26.3215C20.9511 26.3215 26.4679 20.8047 26.4679 14ZM28.075 14C28.075 21.6929 21.8393 27.9286 14.1465 27.9286C6.45361 27.9286 0.217896 21.6929 0.217896 14C0.217896 6.30717 6.45361 0.0714569 14.1465 0.0714569C21.8393 0.0714569 28.075 6.30717 28.075 14ZM7.15968 14H7.32254C7.64611 14 7.82718 14.3622 7.64718 14.6332C7.00432 15.5975 6.62825 16.7515 6.62825 17.99V18.5225C6.62825 18.6522 6.63575 18.7797 6.65075 18.905C6.67861 19.145 6.49861 19.3572 6.25754 19.3572H5.70682C4.7479 19.3572 3.9679 18.5536 3.9679 17.5647C3.9679 15.5986 5.28254 14 7.15968 14ZM21.1333 14C23.0115 14 24.325 15.5986 24.325 17.5647C24.325 18.5536 23.545 19.3572 22.5872 19.3572H22.0365C21.7954 19.3572 21.6143 19.145 21.6433 18.905C21.6572 18.7797 21.6647 18.6522 21.6647 18.5225V17.99C21.6647 16.7515 21.2897 15.5975 20.6468 14.6332C20.4668 14.3622 20.6468 14 20.9704 14H21.1333ZM7.98575 12.9286C6.80397 12.9286 5.8429 11.8475 5.8429 10.5179C5.8429 9.05431 6.68397 8.10717 7.98575 8.10717C9.28754 8.10717 10.1286 9.05431 10.1286 10.5179C10.1286 11.8475 9.16754 12.9286 7.98575 12.9286ZM20.3072 12.9286C19.1254 12.9286 18.1643 11.8475 18.1643 10.5179C18.1643 9.05431 19.0054 8.10717 20.3072 8.10717C21.609 8.10717 22.45 9.05431 22.45 10.5179C22.45 11.8475 21.489 12.9286 20.3072 12.9286ZM15.4022 13.4643C17.9586 13.4643 20.0393 15.4947 20.0393 17.99V18.5225C20.0393 19.5736 19.164 20.4286 18.0861 20.4286H10.2068C9.12897 20.4286 8.25361 19.5736 8.25361 18.5225V17.99C8.25361 15.4947 10.3333 13.4643 12.8908 13.4643H15.4022ZM17.0929 8.64289C17.0929 10.4161 15.7718 11.8572 14.1465 11.8572C12.5222 11.8572 11.2 10.4161 11.2 8.64289C11.2 6.66074 12.3293 5.4286 14.1465 5.4286C15.9647 5.4286 17.0929 6.66074 17.0929 8.64289Z" fill="#673ab7"/>
</svg>
