<svg width="31" height="18" viewBox="0 0 31 18" fill="none" xmlns="http://www.w3.org/2000/svg">
<path d="M7.64648 6.81253V11.8125C7.64648 12.0612 7.74526 12.2996 7.92108 12.4754C8.09689 12.6513 8.33534 12.75 8.58398 12.75C8.83262 12.75 9.07108 12.6513 9.24689 12.4754C9.42271 12.2996 9.52148 12.0612 9.52148 11.8125V6.81253C9.52148 6.56389 9.42271 6.32543 9.24689 6.14962C9.07108 5.9738 8.83262 5.87503 8.58398 5.87503C8.33534 5.87503 8.09689 5.9738 7.92108 6.14962C7.74526 6.32543 7.64648 6.56389 7.64648 6.81253Z" fill="#673ab7"/>
<path d="M6.08398 10.25H11.084C11.3326 10.25 11.5711 10.1513 11.7469 9.97544C11.9227 9.79963 12.0215 9.56117 12.0215 9.31253C12.0215 9.06389 11.9227 8.82543 11.7469 8.64962C11.5711 8.4738 11.3326 8.37503 11.084 8.37503H6.08398C5.83534 8.37503 5.59689 8.4738 5.42108 8.64962C5.24526 8.82543 5.14648 9.06389 5.14648 9.31253C5.14648 9.56117 5.24526 9.79963 5.42108 9.97544C5.59689 10.1513 5.83534 10.25 6.08398 10.25Z" fill="#673ab7"/>
<path d="M21.3965 17.75H8.89648C6.57584 17.75 4.35025 16.8282 2.7093 15.1872C1.06836 13.5463 0.146484 11.3207 0.146484 9.00003C0.146484 6.67939 1.06836 4.45379 2.7093 2.81285C4.35025 1.1719 6.57584 0.250031 8.89648 0.250031H21.3965C23.7171 0.250031 25.9427 1.1719 27.5837 2.81285C29.2246 4.45379 30.1465 6.67939 30.1465 9.00003C30.1465 11.3207 29.2246 13.5463 27.5837 15.1872C25.9427 16.8282 23.7171 17.75 21.3965 17.75ZM21.3965 15.875C23.2198 15.875 24.9685 15.1507 26.2578 13.8614C27.5472 12.5721 28.2715 10.8234 28.2715 9.00003C28.2715 7.17667 27.5472 5.42798 26.2578 4.13867C24.9685 2.84936 23.2198 2.12503 21.3965 2.12503H8.89648C7.07312 2.12503 5.32444 2.84936 4.03513 4.13867C2.74582 5.42798 2.02148 7.17667 2.02148 9.00003C2.02148 10.8234 2.74582 12.5721 4.03513 13.8614C5.32444 15.1507 7.07312 15.875 8.89648 15.875H21.3965Z" fill="#673ab7"/>
<path fill-rule="evenodd" clip-rule="evenodd" d="M20.7715 11.1875C20.7715 11.6019 20.6069 11.9994 20.3138 12.2924C20.0208 12.5854 19.6234 12.75 19.209 12.75C18.7946 12.75 18.3972 12.5854 18.1041 12.2924C17.8111 11.9994 17.6465 11.6019 17.6465 11.1875C17.6465 10.7731 17.8111 10.3757 18.1041 10.0827C18.3972 9.78965 18.7946 9.62503 19.209 9.62503C19.6234 9.62503 20.0208 9.78965 20.3138 10.0827C20.6069 10.3757 20.7715 10.7731 20.7715 11.1875ZM24.5215 7.43753C24.5215 7.85193 24.3569 8.24936 24.0638 8.54238C23.7708 8.83541 23.3734 9.00003 22.959 9.00003C22.5446 9.00003 22.1472 8.83541 21.8541 8.54238C21.5611 8.24936 21.3965 7.85193 21.3965 7.43753C21.3965 7.02313 21.5611 6.6257 21.8541 6.33268C22.1472 6.03965 22.5446 5.87503 22.959 5.87503C23.3734 5.87503 23.7708 6.03965 24.0638 6.33268C24.3569 6.6257 24.5215 7.02313 24.5215 7.43753Z" fill="#673ab7"/>
</svg>
