<svg width="27" height="26" viewBox="0 0 27 26" fill="none" xmlns="http://www.w3.org/2000/svg">
<path d="M25.8161 11.1679C25.8161 11.1679 25.814 11.1658 25.8118 11.1636L14.2468 1.14684C13.9522 0.866126 13.5665 0.707555 13.1347 0.701126C12.7265 0.707555 12.3408 0.866126 12.0761 1.12005L0.476839 11.1679C0.0279103 11.5622 -0.108161 12.1911 0.14791 12.7418C0.373982 13.2304 0.896839 13.5133 1.4347 13.5133H3.50362V23.424C3.50362 24.459 4.34362 25.299 5.37862 25.299H9.9322C10.5236 25.299 11.0036 24.819 11.0036 24.2276V17.6168C11.0036 17.4208 11.1622 17.2633 11.3572 17.2633H14.9358C15.1308 17.2633 15.2893 17.4208 15.2893 17.6168V24.2276C15.2893 24.819 15.7693 25.299 16.3608 25.299H20.9143C21.9504 25.299 22.7893 24.459 22.7893 23.424V13.5133H24.8583C25.3961 13.5133 25.919 13.2304 26.1451 12.7418C26.4011 12.1911 26.2651 11.5622 25.8161 11.1679Z" fill="#673ab7"/>
</svg>
