<?xml version="1.0" encoding="UTF-8" standalone="yes"?>
<svg version="1.1" id="Layer_1" xmlns="http://www.w3.org/2000/svg" xmlns:xlink="http://www.w3.org/1999/xlink" x="0px" y="0px" viewBox="0 0 311.6290588 315" style="enable-background:new 0 0 311.6290588 315;" xml:space="preserve">
      <style type="text/css">.st0{fill:url(#SVGID_1_);}</style>
    <g id="color_index_g">
              <linearGradient id="SVGID_1_" gradientUnits="userSpaceOnUse" x1="24.8568764" y1="276.3136292" x2="255.3907776" y2="66.638176" gradientTransform="matrix(1 0 0 -1 0 316.0099792)">
                      <stop offset="0" style="stop-color:rgba(170, 74, 248, 1)"/>
            <stop offset="1" style="stop-color:rgba(96, 236, 252, 1)"/>
                  </linearGradient>
        <path class="st0" d="M311.6290588,157.5049896c0,6.3401947-0.3800049,12.7303925-1.1400452,18.9906006&#x9;&#x9;c-0.6400452,5.2901611-5.1101379,9.280304-10.4003296,9.280304c-0.6099854,0-1.2300415-0.0500031-1.8300476-0.1600189&#x9;&#x9;c-5.4801636-0.9700317-9.2402649-6.0201874-8.5802612-11.5003662c0.6600342-5.4701691,1.0000305-11.0603333,1.0000305-16.6005249&#x9;&#x9;c0-5.5501709-0.3399963-11.1403503-1.0000305-16.6205139c-0.6700134-5.4801788,3.1001282-10.5303345,8.5802612-11.5003662&#x9;&#x9;c0.6000366-0.1100159,1.2200623-0.1600189,1.8300476-0.1600189c5.2901917,0,9.7603149,3.9901428,10.4003296,9.280304&#x9;&#x9;C311.2490845,144.7645874,311.6290588,151.1547852,311.6290588,157.5049896z M196.865448,287.8791199&#x9;&#x9;c-1.0200348,0-2.0400543,0.1499939-3.0200958,0.4500122c-10.5703278,3.2401123-21.5706787,5.1701965-32.69104,5.7501831&#x9;&#x9;c-5.5201874,0.2900391-9.8503265,4.8801575-9.8503265,10.4503479c0,5.7801819,4.7201538,10.4703369,10.5303345,10.4703369&#x9;&#x9;c0.1900177,0,0.3800201-0.0100098,0.5700226-0.019989c12.7304077-0.6700439,25.3208008-2.8901062,37.4311981-6.59021&#x9;&#x9;c2.7700958-0.8400269,5.100174-2.8100891,6.3802032-5.3901672c1.2900391-2.5900879,1.4600525-5.5201721,0.460022-8.2502747&#x9;&#x9;C205.175705,290.649231,201.2255859,287.8791199,196.865448,287.8791199z M20.6498585,188.335968&#x9;&#x9;c-1.0900345-4.7401581-5.2801685-8.0402527-10.1703224-8.0402527c-0.6100187,0-1.2200394,0.0500031-1.8200569,0.1600189&#x9;&#x9;c-2.8500905,0.5000153-5.3101683,2.1100616-6.9102192,4.5201416c-1.5900505,2.4000702-2.1300676,5.4001617-1.480047,8.2202606&#x9;&#x9;c2.870091,12.3603973,7.2502294,24.3807831,13.0404129,35.7111359c1.8200569,3.5601196,5.4101715,5.7701874,9.3902969,5.7701874&#x9;&#x9;c1.8300571,0,3.6401138-0.4900208,5.2301655-1.4100494c4.8201523-2.7900696,6.6202087-8.840271,4.1001282-13.7604218&#x9;&#x9;C26.9800587,209.6166382,23.1499367,199.1363068,20.6498585,188.335968z M65.4812775,50.351593&#x9;&#x9;c2.2700729,0,4.4201431-0.7200241,6.2302017-2.0800667c8.870285-6.7002144,18.5305862-12.29039,28.7209167-16.6305256&#x9;&#x9;c5.0901642-2.1700706,7.5802383-7.9602547,5.6701736-13.1904202c-1.5000458-4.1101303-5.4601746-6.8702164-9.8503113-6.8702164&#x9;&#x9;c-1.4300461,0-2.8300934,0.2900085-4.1601334,0.8600264c-11.670372,4.9601603-22.7207184,11.3603621-32.8810425,19.020607&#x9;&#x9;c-2.3100739,1.740057-3.8201218,4.3801403-4.150135,7.250227c-0.3300133,2.8800926,0.5200195,5.6801834,2.3800774,7.9002533&#x9;&#x9;C59.4410896,48.9815521,62.3711815,50.351593,65.4812775,50.351593z M261.6074829,42.3613434&#x9;&#x9;c-1.9700623-1.8400574-4.5301514-2.8600922-7.2202301-2.8600922c-3.1000977,0-6.0201874,1.3600426-8.0002441,3.7301178&#x9;&#x9;c-3.5801239,4.270134-3.220108,10.5603371,0.8200226,14.3404541c8.11026,7.580246,15.3004761,16.1205139,21.3406677,25.4108047&#x9;&#x9;c1.9200745,2.9500885,5.1801758,4.7001419,8.7202759,4.7001419c1.8400574,0,3.6601257-0.4900131,5.2601929-1.4100494&#x9;&#x9;c2.5101013-1.4500427,4.2601318-3.8001251,4.9301453-6.6202087c0.6700439-2.8000946,0.1499939-5.8001862-1.440033-8.2202606&#x9;&#x9;C279.0880432,60.8119278,270.8777771,51.0316162,261.6074829,42.3613434z M161.1543121,20.9206619&#x9;&#x9;c11.1203461,0.580019,22.120697,2.5100803,32.6810455,5.7501831c0.9800262,0.3000088,2.000061,0.4500141,3.0200958,0.4500141&#x9;&#x9;c4.3601379,0,8.3002625-2.7700882,9.8103027-6.8902168c1.0000305-2.7200851,0.8300323-5.6501789-0.460022-8.2502613&#x9;&#x9;c-1.2800293-2.5800819-3.6101074-4.5501442-6.3802032-5.3901706c-12.1103821-3.7001173-24.7007751-5.9101872-37.4211884-6.590209&#x9;&#x9;C162.2043457,0.0100003,162.0143433,0,161.8243256,0c-5.8101807,0-10.5303345,4.7001486-10.5303345,10.4703321&#x9;&#x9;C151.3039856,16.0505085,155.6241302,20.6406536,161.1543121,20.9206619z M8.6594791,134.5442505&#x9;&#x9;c0.6000185,0.1100159,1.2100382,0.1600189,1.8200569,0.1600189c4.8901539,0,9.0802879-3.3101044,10.1703224-8.0402603&#x9;&#x9;c2.490078-10.7903442,6.3202-21.2806702,11.3803616-31.1609802c2.5200806-4.9201584,0.7200241-10.96035-4.0901299-13.7604446&#x9;&#x9;c-1.5900497-0.9300232-3.4001064-1.4100418-5.2301655-1.4100418c-3.9701252,0-7.5702391,2.2100677-9.3902979,5.7601776&#x9;&#x9;c-5.7901831,11.330368-10.1803226,23.3407364-13.0404129,35.7011337c-0.6500206,2.8200836-0.1200038,5.8201828,1.480047,8.2202606&#x9;&#x9;C3.3593111,132.4341888,5.8093891,134.0442352,8.6594791,134.5442505z M100.412384,283.3789673&#x9;&#x9;c-10.1903229-4.3401184-19.8506241-9.9403076-28.7009125-16.6405334c-1.810051-1.3700562-3.9601212-2.0900574-6.2302017-2.0900574&#x9;&#x9;c-3.1000938,0-6.0301857,1.3600159-8.0302505,3.7401123c-1.8700562,2.2200623-2.710083,5.0201416-2.3900757,7.900238&#x9;&#x9;c0.3200111,2.8600769,1.8300591,5.5101929,4.1401329,7.2502136c10.140316,7.650238,21.2006721,14.0604553,32.861042,19.0406189&#x9;&#x9;c1.33004,0.5700378,2.7300873,0.8600159,4.1601257,0.8600159c4.3901367,0,8.3502655-2.7601013,9.8503113-6.8702087&#x9;&#x9;C107.99263,291.3392029,105.5025482,285.539032,100.412384,283.3789673z M282.518158,228.7372437&#x9;&#x9;c-1.6000671-0.9200287-3.4201355-1.4100494-5.2601929-1.4100494c-3.5401001,0-6.8002014,1.7600555-8.7202759,4.7001495&#x9;&#x9;c-6.0501709,9.2902832-13.2204132,17.8305664-21.3306732,25.3907776c-4.0501251,3.7701111-4.410141,10.070343-0.8300171,14.3304443&#x9;&#x9;c1.9900665,2.3700867,4.9101562,3.7301331,8.0102386,3.7301331c2.6800842,0,5.2501831-1.0100403,7.2102356-2.8500977&#x9;&#x9;c9.2702942-8.6602783,17.4805603-18.4305725,24.4107971-29.0509186c1.5800171-2.4200745,2.1100464-5.4201813,1.440033-8.2302551&#x9;&#x9;C286.7782898,232.5473633,285.0282593,230.1872864,282.518158,228.7372437z M267.2876587,101.87323&#x9;&#x9;c-1.77005-3.5801163-5.3601379-5.8101807-9.3803101-5.8101807c-1.8400574,0-3.6601105,0.4900131-5.2601471,1.4200439&#x9;&#x9;c-4.7501526,2.7500839-6.5702209,8.7502747-4.1501312,13.6504288c3.3201141,6.730217,5.9101868,13.8304443,7.7002563,21.1106796&#x9;&#x9;c1.1500244,4.6701355,5.3201599,7.9302368,10.1403198,7.9302368c0.6100159,0,1.2200317-0.0500031,1.8200684-0.1600037&#x9;&#x9;c2.8500977-0.5000153,5.400177-2.180069,6.9802246-4.6101532c1.5700684-2.41008,2.0800476-5.3901672,1.3900757-8.1702576&#x9;&#x9;C274.3878784,118.483757,271.2778015,109.9534836,267.2876587,101.87323z M222.1462402,240.5576172&#x9;&#x9;c-2.2300568,0-4.3601379,0.7000275-6.150177,2.0100708c-6.0702057,4.4501343-12.6103973,8.2502594-19.4506226,11.2803497&#x9;&#x9;c-5.0001526,2.2200775-7.4402313,7.9902496-5.5601654,13.1404266c1.5100403,4.130127,5.4601746,6.9002075,9.8503113,6.9002075&#x9;&#x9;c1.4500427,0,2.8700867-0.2999878,4.210144-0.8900452c8.2102661-3.6500854,16.0705109-8.2002563,23.3407288-13.5404358&#x9;&#x9;c2.3100739-1.7000427,3.8301239-4.3101196,4.18013-7.1602173c0.3400116-2.8700867-0.530014-5.7901764-2.3900757-8.0102539&#x9;&#x9;C228.1664276,241.9176636,225.2463379,240.5576172,222.1462402,240.5576172z M66.4313049,248.5078735&#x9;&#x9;c1.9400635,1.8700562,4.500145,2.8900909,7.2002258,2.8900909c3.1100998,0,6.0501938-1.3700409,8.0502625-3.7501221&#x9;&#x9;c3.5201035-4.2001343,3.1901016-10.4603424-0.7500229-14.2504425c-5.4101791-5.1901703-10.2803268-10.9803467-14.4604645-17.210556&#x9;&#x9;c-1.9400635-2.8800964-5.1701584-4.6001587-8.6602707-4.6001587c-1.8400574,0-3.650116,0.4900208-5.2501678,1.4200439&#x9;&#x9;c-2.5000763,1.4500427-4.3101349,3.9101257-4.9601555,6.7302094c-0.6500206,2.8000946-0.1000023,5.7701874,1.5000496,8.1502533&#x9;&#x9;C54.1109161,235.3474579,59.9411049,242.287674,66.4313049,248.5078735z M52.5608673,102.013237&#x9;&#x9;c1.5900536,0.9200211,3.4101105,1.4100418,5.2401695,1.4100418c3.4901123,0,6.720211-1.7200546,8.6602669-4.6001434&#x9;&#x9;c4.1801376-6.220192,9.050293-12.0203857,14.4704666-17.2205429c3.950119-3.790123,4.2701263-10.0503235,0.7400208-14.2504501&#x9;&#x9;c-2.0000687-2.3800735-4.9301605-3.7501221-8.0402603-3.7501221c-2.7000809,0-5.26017,1.0300293-7.210228,2.9000931&#x9;&#x9;c-6.5002022,6.2401962-12.3303909,13.1804199-17.3405457,20.6406555c-1.6000519,2.3800735-2.1500702,5.3501663-1.5000496,8.1502609&#x9;&#x9;C48.2407341,98.1031036,50.0507927,100.5631866,52.5608673,102.013237z M200.8255615,41.1113014&#x9;&#x9;c-4.3901367,0-8.3502655,2.7800903-9.8503113,6.9102211c-1.8800659,5.1501656,0.5700226,10.9203453,5.5601654,13.1304169&#x9;&#x9;c6.84021,3.030098,13.3904266,6.8302155,19.4606171,11.2703552c1.8000488,1.3200378,3.9201202,2.0100632,6.150177,2.0100632&#x9;&#x9;c3.1001129,0,6.0202026-1.3600464,8.0202637-3.7301178c1.8600616-2.2100754,2.740097-5.1301651,2.3900757-8.0102577&#x9;&#x9;c-0.3400116-2.8600922-1.8600616-5.4701767-4.18013-7.1602287c-7.2802277-5.340168-15.1404724-9.8903122-23.360733-13.530426&#x9;&#x9;C203.6856537,41.4113121,202.2756042,41.1113014,200.8255615,41.1113014z M121.7630615,56.7017975&#x9;&#x9;c0.9800339,0,1.950058-0.1400032,2.9000931-0.4100151c7.1902237-2.0800667,14.6404648-3.3901062,22.1507034-3.9001236&#x9;&#x9;c5.4601746-0.3600121,9.7303009-4.9501572,9.7303009-10.4403305c0-5.7801819-4.68013-10.4803295-10.4303131-10.4803295&#x9;&#x9;c-0.230011,0-0.4700165,0.0100002-0.7000275,0.0200005c-9.0002899,0.6000195-17.9505615,2.1800709-26.5808411,4.6801472&#x9;&#x9;c-2.7500839,0.8000259-5.080162,2.7300873-6.3802032,5.2901688c-1.3100357,2.5900841-1.4900436,5.6301804-0.5000153,8.3502693&#x9;&#x9;C113.4428024,53.9317093,117.3929214,56.7017975,121.7630615,56.7017975z M49.1607628,168.7653351&#x9;&#x9;c-0.400013-3.7301025-0.6000175-7.5202332-0.6000175-11.2603455c0-3.7501221,0.2000084-7.5402374,0.6000175-11.2603455&#x9;&#x9;c0.5800209-5.4301758-3.1900978-10.4303436-8.590271-11.3903656c-0.6100197-0.1100006-1.2200394-0.1600037-1.8300591-0.1600037&#x9;&#x9;c-5.3601723,0-9.8303127,4.0101166-10.4003296,9.3202972c-0.4800148,4.460144-0.7200222,9.0002899-0.7200222,13.4904327&#x9;&#x9;c0,4.4801331,0.2400074,9.0102844,0.7100201,13.4704285c0.5700188,5.3201752,5.0401611,9.3302917,10.4003334,9.3302917&#x9;&#x9;c0.6000175,0,1.2100372-0.0500031,1.8100586-0.1600037C45.9606628,179.2056732,49.7407799,174.2055206,49.1607628,168.7653351z&#x9;&#x9; M156.5341644,273.0586243c0-5.4901428-4.2701416-10.0703125-9.7303009-10.4403076&#x9;&#x9;c-7.5102386-0.5000305-14.9704742-1.8100586-22.1607056-3.900116c-0.940033-0.2700195-1.9200592-0.4100342-2.9000931-0.4100342&#x9;&#x9;c-4.3701401,0-8.310257,2.7700806-9.8203125,6.8802185c-0.9900284,2.7200928-0.8100204,5.7701721,0.5000153,8.3502808&#x9;&#x9;c1.3000488,2.5700989,3.6301117,4.5001526,6.3802032,5.2901611c8.6302719,2.5000916,17.5805435,4.0801392,26.5908432,4.6801453&#x9;&#x9;c0.2400208,0.019989,0.4700165,0.019989,0.7000275,0.019989&#x9;&#x9;C151.8540192,283.5389709,156.5341644,278.8388062,156.5341644,273.0586243z M268.1877136,174.9855347&#x9;&#x9;c-0.6000366-0.1100006-1.210022-0.1600037-1.8200684-0.1600037c-4.8201599,0-8.9902649,3.2601013-10.1403198,7.9302368&#x9;&#x9;c-1.8000793,7.2802429-4.390152,14.3904572-7.7202606,21.1306763c-2.4200745,4.9001465-0.5900116,10.9003448,4.1501312,13.6504364&#x9;&#x9;c1.6000519,0.9300232,3.420105,1.4200439,5.2601624,1.4200439c4.0201416,0,7.6102295-2.230072,9.3803101-5.8101807&#x9;&#x9;c3.9901123-8.1002655,7.110199-16.6305389,9.2603149-25.3708038c0.6900024-2.7800903,0.1799927-5.7601776-1.3900757-8.1802521&#x9;&#x9;C273.5778809,177.1656189,271.0377808,175.4855499,268.1877136,174.9855347z M221.416214,90.8828735&#x9;&#x9;c-2.000061-2.0300598-4.6701508-3.1400986-7.5102386-3.1400986c-3.1000977,0-6.0201874,1.3600464-8.0202484,3.7401199&#x9;&#x9;c-3.4901276,4.1601334-3.220108,10.2303162,0.6200104,14.1204529c2.7800903,2.8200836,5.3601685,5.8801804,7.6602478,9.120285&#x9;&#x9;c1.9800568,2.7900925,5.1901703,4.4501419,8.590271,4.4501419c1.8300629,0,3.6301117-0.4900131,5.2101746-1.4000473&#x9;&#x9;c2.5400696-1.470047,4.3601379-3.9601212,4.9801483-6.8202133c0.6300201-2.8900909,0.0099945-5.9401932-1.7200623-8.3702698&#x9;&#x9;C228.2964325,98.4331207,224.9963226,94.5029907,221.416214,90.8828735z M227.9764404,197.2462616&#x9;&#x9;c-1.5900574-0.9200287-3.3901062-1.4000397-5.2101746-1.4000397c-3.4001007,0-6.6102142,1.6600494-8.590271,4.4501343&#x9;&#x9;c-2.2900696,3.2301025-4.8701477,6.2901917-7.650238,9.1102905c-3.8401184,3.8901215-4.1101379,9.9603119-0.6100159,14.1204376&#x9;&#x9;c1.9900665,2.3700714,4.9101562,3.7301178,8.0102386,3.7301178c2.8400879,0,5.5101776-1.1200256,7.5102386-3.1501007&#x9;&#x9;c3.5701141-3.6101074,6.8702087-7.5402222,9.8103027-11.6803589c1.7200623-2.4200745,2.3500824-5.4701691,1.7200623-8.36026&#x9;&#x9;C232.3365784,201.2063751,230.51651,198.7163086,227.9764404,197.2462616z M122.233078,224.3071136&#x9;&#x9;c-3.5701141-1.700058-7.03022-3.7101288-10.3003311-5.9701996c-1.7800522-1.240036-3.8601227-1.8900604-6.0201874-1.8900604&#x9;&#x9;c-3.1000977,0-6.0101929,1.3600464-8.0002518,3.7201233c-1.8900604,2.2500763-2.7500839,5.2001648-2.3600769,8.11026&#x9;&#x9;c0.3900146,2.9300842,2.0200653,5.5901794,4.460144,7.2802277c4.1901321,2.9000854,8.6302719,5.4801636,13.2104187,7.6602478&#x9;&#x9;c1.4400482,0.6800079,2.9600906,1.0300293,4.5401382,1.0300293c4.3901443,0,8.3502655-2.7600861,9.8603134-6.8802185&#x9;&#x9;C129.4933014,232.2673492,127.1732407,226.6471863,122.233078,224.3071136z M82.4918213,113.2435837&#x9;&#x9;c-1.6000519-0.9300308-3.4101105-1.4200439-5.2401657-1.4200439c-4.090126,0-7.8502426,2.41008-9.5702972,6.1401978&#x9;&#x9;c-2.1300659,4.6201477-3.9001274,9.4602966-5.2501717,14.3704605c-0.7900238,2.8700867-0.3300095,5.9501801,1.2600403,8.4502563&#x9;&#x9;c1.5700493,2.480072,4.1301308,4.2001343,7.0302238,4.7001495c0.6000214,0.1000061,1.2100372,0.1600037,1.8100586,0.1600037&#x9;&#x9;c4.6901474,0,8.8502731-3.190094,10.1003189-7.7502441c1.0500336-3.8201294,2.4200745-7.5702362,4.0801315-11.1703491&#x9;&#x9;C88.9920273,121.7638626,87.1819611,115.9636765,82.4918213,113.2435837z M172.5746765,85.9527206&#x9;&#x9;c0.8800201,0.230011,1.7900391,0.3500061,2.6900787,0.3500061c4.3901367,0,8.3402557-2.7500839,9.8403168-6.8502121&#x9;&#x9;c1.010025-2.7600937,0.8100128-5.8401794-0.5500336-8.4402695c-1.3700256-2.6300812-3.8101044-4.5601425-6.6902008-5.3201675&#x9;&#x9;c-4.9101715-1.2800446-9.9703217-2.1800728-15.0504913-2.6500854c-0.3300018-0.0300026-0.6700134-0.0500031-1.0000305-0.0500031&#x9;&#x9;c-5.8001862,0-10.52034,4.7001495-10.52034,10.4803314c0,5.4301758,4.1101379,9.920311,9.5503082,10.4203262&#x9;&#x9;C164.8044128,84.2626724,168.7545624,84.9526901,172.5746765,85.9527206z M127.6432495,77.6524582&#x9;&#x9;c-1.5000534-4.1201324-5.4601746-6.890213-9.8603134-6.890213c-1.5800552,0-3.1000977,0.3500061-4.5401459,1.0300293&#x9;&#x9;c-4.5901413,2.180069-9.0402908,4.7601547-13.2204208,7.6602402c-2.4400787,1.6900558-4.0701294,4.3501358-4.460144,7.2902298&#x9;&#x9;c-0.390007,2.9100952,0.4800186,5.8601913,2.3600769,8.11026c1.9900589,2.3600769,4.9001541,3.7101135,7.9902496,3.7101135&#x9;&#x9;c2.1600723,0,4.2401352-0.6500168,6.0301895-1.8900604c3.2601089-2.2600708,6.7202148-4.2701263,10.290329-5.9701843&#x9;&#x9;C127.1732407,88.3628006,129.4933014,82.7526245,127.6432495,77.6524582z M82.6218262,177.1056213&#x9;&#x9;c-1.2600479-4.5601501-5.4101791-7.7502441-10.1003189-7.7502441c-0.6000214,0-1.2100372,0.0500031-1.8100586,0.1600037&#x9;&#x9;c-2.8900909,0.5100098-5.4501724,2.2200775-7.03022,4.7001495c-1.5900497,2.5000763-2.0400658,5.5901642-1.2600403,8.4502563&#x9;&#x9;c1.3500443,4.9101562,3.1201019,9.7503052,5.2501602,14.3804626c1.7200623,3.7301178,5.4801788,6.1401978,9.5703049,6.1401978&#x9;&#x9;c1.8300629,0,3.6401138-0.4900208,5.2401657-1.4200439c4.6901474-2.7300873,6.500206-8.5202789,4.2101288-13.480423&#x9;&#x9;C85.0519028,184.6958466,83.6718597,180.93573,82.6218262,177.1056213z M161.8243256,252.0179749&#x9;&#x9;c0.3300171,0,0.6600342-0.0200043,0.990036-0.0500031c5.0901642-0.4700165,10.1603241-1.3700409,15.0704803-2.6500702&#x9;&#x9;c2.8800964-0.7500305,5.3101654-2.690094,6.6902008-5.3201752c1.3600464-2.6000977,1.5600586-5.6801758,0.5500336-8.4402771&#x9;&#x9;c-1.500061-4.1001282-5.4601898-6.8602142-9.8403168-6.8602142c-0.9100342,0-1.8100586,0.1199951-2.6900787,0.3500214&#x9;&#x9;c-3.8301239,1.0000305-7.7802582,1.7000427-11.740387,2.0600586c-5.4501648,0.5100098-9.5503082,4.9901581-9.5503082,10.4203186&#x9;&#x9;C151.3039856,247.3178253,156.0141449,252.0179749,161.8243256,252.0179749z M248.4970703,165.1352386&#x9;&#x9;c0.2000122-2.5300751,0.3100128-5.0901642,0.3100128-7.630249c0-2.5400696-0.1000061-5.1101685-0.3100128-7.6402435&#x9;&#x9;c-0.4400177-5.4401703-5.0201569-9.6903076-10.4403381-9.6903076c-0.6200104,0-1.240036,0.0599976-1.8500519,0.1600037&#x9;&#x9;c-5.3301697,0.9500275-9.0202942,5.7701874-8.5802765,11.2003632c0.1600037,1.9800568,0.2400055,3.9801178,0.2400055,5.9701843&#x9;&#x9;s-0.0800018,4.0001221-0.2400055,5.9501801c-0.4400177,5.4301758,3.2501068,10.2503357,8.5802765,11.2003632&#x9;&#x9;c0.6100159,0.1100006,1.240036,0.1600037,1.8600616,0.1600037&#x9;&#x9;C243.4769287,174.8255463,248.0570526,170.5653992,248.4970703,165.1352386z"/>
          </g>
  </svg>