<svg xmlns="http://www.w3.org/2000/svg" xmlns:xlink="http://www.w3.org/1999/xlink" viewBox="0,0,256,256" width="64px" height="64px"><defs><radialGradient cx="36.833" cy="35.917" r="26" gradientUnits="userSpaceOnUse" id="color-1"><stop offset="0" stop-color="#ffffff" stop-opacity="0"></stop><stop offset="0.226" stop-color="#ffffff" stop-opacity="0"></stop><stop offset="0.513" stop-color="#ffffff" stop-opacity="0"></stop><stop offset="0.778" stop-color="#ffffff" stop-opacity="0"></stop><stop offset="1" stop-color="#fff6e1" stop-opacity="0"></stop></radialGradient><radialGradient cx="31.417" cy="29.917" r="28.77" gradientUnits="userSpaceOnUse" id="color-2"><stop offset="0" stop-color="#ffffff" stop-opacity="0"></stop><stop offset="0.226" stop-color="#ffffff" stop-opacity="0"></stop><stop offset="0.513" stop-color="#ffffff" stop-opacity="0"></stop><stop offset="0.778" stop-color="#ffffff" stop-opacity="0"></stop><stop offset="1" stop-color="#fff6e1" stop-opacity="0"></stop></radialGradient><radialGradient cx="32" cy="32" r="32" gradientUnits="userSpaceOnUse" id="color-3"><stop offset="0" stop-color="#ffffff" stop-opacity="0"></stop><stop offset="0.226" stop-color="#ffffff" stop-opacity="0"></stop><stop offset="0.513" stop-color="#ffffff" stop-opacity="0"></stop><stop offset="0.778" stop-color="#ffffff" stop-opacity="0"></stop><stop offset="1" stop-color="#fff6e1" stop-opacity="0"></stop></radialGradient><linearGradient x1="32.5" y1="1.229" x2="32.5" y2="64.477" gradientUnits="userSpaceOnUse" id="color-4"><stop offset="0" stop-color="#ffffff"></stop><stop offset="0.63" stop-color="#ffffff"></stop><stop offset="1" stop-color="#ffffff"></stop><stop offset="1" stop-color="#ffffff"></stop></linearGradient></defs><g transform=""><g fill="none" fill-rule="nonzero" stroke="none" stroke-width="1" stroke-linecap="butt" stroke-linejoin="miter" stroke-miterlimit="10" stroke-dasharray="" stroke-dashoffset="0" font-family="none" font-weight="none" font-size="none" text-anchor="none" style="mix-blend-mode: normal"><g transform="scale(4,4)"><path d="M10,8v0c2.209,0 4,-1.791 4,-4v0c0,-2.209 -1.791,-4 -4,-4v0c-2.209,0 -4,1.791 -4,4v0c0,2.209 1.791,4 4,4z" fill="url(#color-1)"></path><path d="M7.5,64v0c1.933,0 3.5,-1.567 3.5,-3.5v0c0,-1.933 -1.567,-3.5 -3.5,-3.5v0c-1.933,0 -3.5,1.567 -3.5,3.5v0c0,1.933 1.567,3.5 3.5,3.5z" fill="url(#color-2)"></path><path d="M62,20.5v0c0,-2.485 -2.015,-4.5 -4.5,-4.5h-8.5c-2.209,0 -4,-1.791 -4,-4v0c0,-2.209 1.791,-4 4,-4h2c2.209,0 4,-1.791 4,-4v0c0,-2.209 -1.791,-4 -4,-4h-31c-2.209,0 -4,1.791 -4,4v0c0,2.209 1.791,4 4,4h2c1.657,0 3,1.343 3,3v0c0,1.657 -1.343,3 -3,3h-14.5c-1.933,0 -3.5,1.567 -3.5,3.5v0c0,1.933 1.567,3.5 3.5,3.5h1.5c1.657,0 3,1.343 3,3v0c0,1.657 -1.343,3 -3,3h-4c-2.761,0 -5,2.239 -5,5v0c0,2.761 2.239,5 5,5h2.5c1.933,0 3.5,1.567 3.5,3.5v0c0,1.933 -1.567,3.5 -3.5,3.5h-1.5c-2.209,0 -4,1.791 -4,4v0c0,2.209 1.791,4 4,4h11.5c1.381,0 2.5,1.119 2.5,2.5v0c0,1.381 -1.119,2.5 -2.5,2.5v0c-1.933,0 -3.5,1.567 -3.5,3.5v0c0,1.933 1.567,3.5 3.5,3.5h30c1.933,0 3.5,-1.567 3.5,-3.5v0c0,-1.933 -1.567,-3.5 -3.5,-3.5h-0.5c-1.105,0 -2,-0.895 -2,-2v0c0,-1.105 0.895,-2 2,-2h13c2.209,0 4,-1.791 4,-4v0c0,-2.209 -1.791,-4 -4,-4h-3.5c-1.381,0 -2.5,-1.119 -2.5,-2.5v0c0,-1.381 1.119,-2.5 2.5,-2.5h0.5c2.209,0 4,-1.791 4,-4v0c0,-2.209 -1.791,-4 -4,-4h-4.5c-1.933,0 -3.5,-1.567 -3.5,-3.5v0c0,-1.933 1.567,-3.5 3.5,-3.5h5c2.485,0 4.5,-2.015 4.5,-4.5z" fill="url(#color-3)"></path><path d="M14.5,28h36c1.933,0 3.5,1.567 3.5,3.5v0c0,1.933 -1.567,3.5 -3.5,3.5h-36c-1.933,0 -3.5,-1.567 -3.5,-3.5v0c0,-1.933 1.567,-3.5 3.5,-3.5zM11,16.5v0c0,1.933 1.567,3.5 3.5,3.5h36c1.933,0 3.5,-1.567 3.5,-3.5v0c0,-1.933 -1.567,-3.5 -3.5,-3.5h-36c-1.933,0 -3.5,1.567 -3.5,3.5zM11,46.5v0c0,1.933 1.567,3.5 3.5,3.5h36c1.933,0 3.5,-1.567 3.5,-3.5v0c0,-1.933 -1.567,-3.5 -3.5,-3.5h-36c-1.933,0 -3.5,1.567 -3.5,3.5z" fill="url(#color-4)"></path></g></g></g></svg>